<svg version="1.1" id="Layer_1" xmlns="http://www.w3.org/2000/svg" xmlns:xlink="http://www.w3.org/1999/xlink" x="0px" y="0px"
	 width="100%" viewBox="0 0 1024 672" enable-background="new 0 0 1024 672" xml:space="preserve">
<path fill="#000000" opacity="1.000000" stroke="none" 
	d="
M298.782196,427.104675 
	C245.780640,438.547638 192.659149,403.037750 185.236282,345.560913 
	C176.848892,280.615692 228.152145,235.968994 283.671204,239.883026 
	C299.552155,241.002594 314.274536,246.115509 327.502167,255.167145 
	C328.850250,256.089630 330.462280,256.781525 331.265015,259.509888 
	C324.963806,262.637573 318.526398,265.932373 311.986084,269.008362 
	C310.378418,269.764465 308.781830,268.457642 307.279602,267.798218 
	C264.130890,248.857254 216.726212,272.414551 206.047165,318.365509 
	C202.031494,335.644562 203.900085,352.443665 212.426285,368.240784 
	C216.356110,375.521820 218.489410,376.552124 226.452240,374.351959 
	C237.888123,371.192139 247.910431,365.325073 256.780243,357.517548 
	C261.632751,353.246246 266.282654,348.744659 271.246735,344.140259 
	C269.150757,341.694031 266.489014,341.152344 264.109772,340.220612 
	C254.652756,336.517181 245.143845,332.946045 235.694351,329.223877 
	C233.935562,328.531067 231.315445,328.382324 231.120209,325.959656 
	C230.914093,323.401794 233.571228,323.101471 235.266113,322.298492 
	C271.691406,305.041840 308.139557,287.833405 344.580566,270.609985 
	C346.387512,269.755951 348.143372,268.789520 349.972015,267.987000 
	C351.884033,267.147858 353.873199,265.429749 355.951935,267.310852 
	C358.143066,269.293701 356.390076,271.335541 355.516235,273.202118 
	C348.878387,287.381134 342.210388,301.546173 335.507050,315.694366 
	C324.240051,339.474823 312.954590,363.246613 301.625183,386.997406 
	C300.748077,388.836121 300.399902,391.633850 297.566986,391.389343 
	C295.148010,391.180573 294.880066,388.660248 294.211945,386.858643 
	C290.691650,377.365417 287.259155,367.839630 283.792816,358.315826 
	C281.316864,358.491425 280.627106,360.387054 279.684662,361.807800 
	C271.582764,374.021545 263.520569,386.261963 255.511200,398.536621 
	C252.841614,402.627899 253.281006,404.090485 258.167206,405.712341 
	C273.083099,410.663239 288.134796,410.428497 302.714844,404.875366 
	C332.679169,393.462708 349.325836,371.396729 353.846680,339.711761 
	C355.003845,331.601471 354.131195,323.813782 352.940643,315.923737 
	C352.479309,312.866272 352.723083,310.067780 354.455475,307.315491 
	C357.350983,302.715240 359.954681,297.931366 362.882996,292.876434 
	C386.730865,331.997467 371.161591,408.333618 298.782196,427.104675 
z"/>
<path fill="#000000" opacity="1.000000" stroke="none" 
	d="
M484.626282,333.486267 
	C491.176300,350.957031 497.579590,368.068573 504.355286,386.175293 
	C495.899017,386.175293 488.346649,386.235016 480.796509,386.132751 
	C478.940399,386.107605 478.598297,384.233704 478.115021,382.882782 
	C476.209137,377.554871 474.236389,372.239441 472.644135,366.815002 
	C471.641876,363.400574 469.896820,361.966461 466.257782,362.022400 
	C454.762573,362.199158 443.262329,362.187561 431.766052,362.061768 
	C428.742767,362.028687 427.250793,363.213959 426.345612,365.993500 
	C424.541992,371.531860 422.381073,376.954315 420.596313,382.498230 
	C419.685822,385.326416 418.114075,386.478546 415.138275,386.413696 
	C408.542145,386.269958 401.940704,386.368927 395.134491,386.368927 
	C395.293182,381.240936 397.487976,377.580780 398.890167,373.750610 
	C410.680481,341.544800 422.681213,309.415955 434.448486,277.201813 
	C435.687103,273.811005 437.349091,272.459351 440.934662,272.615814 
	C446.589569,272.862579 452.265167,272.780884 457.927612,272.649261 
	C460.849030,272.581329 462.379242,273.655396 463.418854,276.496826 
	C470.338806,295.410248 477.438385,314.257965 484.626282,333.486267 
M458.121552,342.688293 
	C459.727081,342.506073 461.451233,343.125916 463.533112,341.563507 
	C458.875427,328.895264 454.155975,316.059143 449.436523,303.223022 
	C449.021973,303.206940 448.607452,303.190826 448.192902,303.174713 
	C443.681702,316.052856 439.170502,328.931030 434.351593,342.687531 
	C442.655670,342.687531 449.935486,342.687531 458.121552,342.688293 
z"/>
<path fill="#000000" opacity="1.000000" stroke="none" 
	d="
M667.652344,321.525909 
	C675.929993,337.854523 676.315735,353.940521 667.107544,369.487183 
	C656.683289,387.087097 630.295105,395.882782 610.241577,379.342285 
	C608.660095,380.391663 609.409546,382.034180 609.397339,383.346802 
	C609.304688,393.341003 609.232361,403.337738 609.374634,413.330536 
	C609.424622,416.843079 608.444824,418.329559 604.613831,418.425751 
	C587.646362,418.851837 587.648621,418.960388 587.647827,402.049927 
	C587.646362,371.565186 587.746582,341.079773 587.542664,310.596375 
	C587.509583,305.645508 588.855896,303.421783 593.972778,303.962219 
	C596.278564,304.205719 598.632629,303.984406 600.964783,303.988098 
	C608.873840,304.000641 608.873840,304.003052 609.792969,312.235229 
	C620.648499,302.023132 633.162109,300.538391 646.537231,304.412994 
	C655.749756,307.081757 662.550476,313.034088 667.652344,321.525909 
M614.679443,328.211334 
	C609.503601,334.407745 608.735840,341.723694 609.189331,349.399200 
	C609.848328,360.552124 616.562256,367.898712 628.448730,369.318878 
	C635.605469,370.173950 645.283081,366.694122 649.280579,355.538208 
	C651.136536,350.358643 651.503723,345.025421 650.529968,339.779388 
	C649.021912,331.655304 645.024292,325.011963 636.624512,322.382629 
	C628.532227,319.849457 621.143372,321.144012 614.679443,328.211334 
z"/>
<path fill="#000000" opacity="1.000000" stroke="none" 
	d="
M847.939453,320.399200 
	C849.659058,324.659515 850.379639,328.683167 850.360229,332.915588 
	C850.286987,348.895874 850.197571,364.878906 850.441223,380.855957 
	C850.509644,385.341492 848.969604,386.905914 844.673218,386.408905 
	C842.701965,386.180847 840.682495,386.370239 838.684937,386.369629 
	C830.373169,386.367065 830.373169,386.367004 829.127869,378.172241 
	C824.210449,383.165588 818.722656,386.555542 811.908875,387.664490 
	C804.593567,388.854980 797.599670,387.885559 790.921387,384.993256 
	C782.171875,381.203918 777.553345,374.249084 776.924377,364.800964 
	C776.269531,354.965973 779.993774,347.367767 788.758606,342.342285 
	C795.774109,338.319794 803.431030,337.135345 811.280823,336.762421 
	C816.097961,336.533600 820.937195,336.585815 825.760010,336.730713 
	C828.884583,336.824615 829.799683,335.459045 829.691956,332.521851 
	C829.377625,323.949890 820.316101,318.325500 810.405029,320.706268 
	C806.708618,321.594177 803.416382,323.290039 801.752563,326.862213 
	C800.405090,329.755341 798.400879,330.688507 795.402893,330.360931 
	C791.768799,329.963837 788.122375,329.638397 784.472778,329.436707 
	C781.193970,329.255493 780.590698,327.698853 781.525574,324.804657 
	C784.375305,315.983124 789.388245,309.046783 798.257996,305.527008 
	C808.684631,301.389496 819.296753,301.199463 829.998047,304.434418 
	C838.286133,306.939819 844.257324,312.096344 847.939453,320.399200 
M800.045471,366.314636 
	C804.851685,371.710144 810.743958,372.690887 817.247375,370.206879 
	C824.157227,367.567657 828.336975,362.479614 829.594177,355.142822 
	C830.010193,352.715118 829.023499,351.392365 826.347656,351.381256 
	C819.856934,351.354279 813.345703,351.136383 806.952637,352.455048 
	C799.634521,353.964508 797.202148,358.522156 800.045471,366.314636 
z"/>
<path fill="#000000" opacity="1.000000" stroke="none" 
	d="
M574.837769,372.523468 
	C568.081421,385.455414 547.556580,390.959351 532.454041,386.731506 
	C523.270813,384.160797 514.716675,380.626892 510.425293,371.146942 
	C507.349365,364.351929 507.965820,363.075073 515.019043,361.152008 
	C516.142944,360.845581 517.279419,360.575348 518.383789,360.208923 
	C522.856323,358.724945 526.226929,358.077850 529.174133,363.767334 
	C532.752136,370.674408 545.170227,372.671814 552.045349,368.704803 
	C554.756470,367.140503 556.105103,364.899139 555.870056,361.707977 
	C555.648438,358.698578 553.613831,357.270691 551.132202,356.565369 
	C545.694031,355.019775 540.185730,353.720703 534.706360,352.320190 
	C530.491089,351.242737 526.524597,349.561523 522.658630,347.571228 
	C505.557617,338.767273 508.450256,317.287445 520.875732,308.611298 
	C532.751709,300.318909 552.915466,300.191040 564.830750,308.529541 
	C569.346619,311.689880 572.283752,315.998169 574.321472,321.083923 
	C575.547241,324.143280 574.400879,325.449738 571.556946,325.979156 
	C567.796387,326.679230 564.021729,327.306274 560.270142,328.050415 
	C558.028503,328.495056 556.610352,327.690308 555.189270,325.891571 
	C550.978882,320.562195 543.921814,318.612640 537.675293,320.829041 
	C534.632446,321.908691 532.505615,323.822083 532.340698,327.318939 
	C532.167542,330.991791 534.390991,332.811798 537.512695,333.713715 
	C544.702820,335.791016 551.949036,337.674805 559.134583,339.767181 
	C562.820557,340.840515 566.342590,342.366730 569.419128,344.748199 
	C577.780518,351.220551 579.826294,361.237061 574.837769,372.523468 
z"/>
<path fill="#000000" opacity="1.000000" stroke="none" 
	d="
M730.113159,303.999390 
	C732.594849,303.992340 734.594482,303.977600 736.594116,303.983246 
	C744.612854,304.005859 744.612854,304.008209 745.424866,312.076202 
	C746.932068,312.590393 747.348328,311.153992 748.044373,310.453796 
	C754.234009,304.226990 761.905457,303.042236 770.194641,303.685974 
	C772.620178,303.874298 773.269348,305.233551 773.264099,307.329834 
	C773.252808,311.828613 773.224487,316.327911 773.278625,320.826080 
	C773.309448,323.394684 772.069824,324.462677 769.594482,324.316925 
	C769.096375,324.287567 768.593323,324.340332 768.095276,324.310547 
	C751.856506,323.339233 745.137878,332.564789 745.101196,347.015656 
	C745.072876,358.180267 744.953613,369.347687 745.166077,380.508331 
	C745.252991,385.073120 743.636353,386.813721 739.042053,386.434448 
	C734.903687,386.092773 730.714966,386.283661 726.550720,386.359100 
	C723.798279,386.408966 722.680908,385.189545 722.684692,382.463226 
	C722.718872,357.634369 722.692261,332.805420 722.704529,307.976501 
	C722.707153,302.706055 726.816345,304.447815 730.113159,303.999390 
z"/>
<path fill="#000000" opacity="1.000000" stroke="none" 
	d="
M706.978516,307.468689 
	C707.025452,331.912659 706.934814,355.903534 707.120178,379.892273 
	C707.157776,384.756378 705.848755,387.104004 700.632568,386.411865 
	C695.580627,385.741547 689.140503,388.597168 685.735352,385.076965 
	C682.572754,381.807495 684.735413,375.526001 684.706665,370.584351 
	C684.589600,350.426514 684.785095,330.266327 684.570068,310.110138 
	C684.521301,305.545959 685.965698,303.702820 690.510742,303.947418 
	C694.497681,304.161987 698.504944,303.972839 702.502380,304.026978 
	C704.587891,304.055237 706.577209,304.362915 706.978516,307.468689 
z"/>
<path fill="#000000" opacity="1.000000" stroke="none" 
	d="
M683.014893,288.339264 
	C682.077820,282.618073 683.867188,278.339996 688.566162,275.719360 
	C693.409485,273.018311 698.481873,272.963440 703.219177,276.112823 
	C707.356628,278.863403 709.043640,282.937592 708.173462,287.781494 
	C707.246338,292.942657 703.643127,295.884857 698.783752,296.988037 
	C693.579834,298.169434 688.838745,296.966583 685.344727,292.606018 
	C684.427063,291.460815 683.868164,290.028198 683.014893,288.339264 
z"/>
</svg>